Coordinates
version=1
nRows=38
nColumns=12
inDegrees=yes

Units are S.I. units (second, meters, Newtons, ...)
Angles are in degrees

endheader
time	SC_y	SC_z	SC_x	AC_y	AC_z	AC_x	GH_y	GH_z	GH_yy	EL_x	PS_y
       0.0              -29.56          34.85          3.837          44.99         -8.487         -4.358           18.4          45.86         -43.04          44.42          17.87
    0.0457              -29.55          34.85          3.847          44.99         -8.488         -4.354          18.41          45.86         -43.04          44.43          17.87
    0.0914              -29.55          34.85          3.857          44.98         -8.489         -4.351          18.41          45.86         -43.03          44.44          17.88
    0.1371              -29.55          34.85          3.868          44.98          -8.49         -4.347          18.42          45.86         -43.03          44.45          17.88
    0.1828              -29.55          34.85           3.88          44.98         -8.491         -4.343          18.43          45.85         -43.03          44.47          17.89
    0.2285              -29.54          34.85          3.893          44.98         -8.493         -4.338          18.44          45.85         -43.02          44.48          17.89
    0.2742              -29.54          34.85          3.906          44.98         -8.494         -4.334          18.45          45.85         -43.02           44.5           17.9
    0.3199              -29.53          34.85           3.92          44.98         -8.496         -4.329          18.46          45.85         -43.01          44.51          17.91
    0.3656              -29.53          34.85          3.935          44.97         -8.497         -4.323          18.47          45.85         -43.01          44.53          17.91
    0.4113              -29.53          34.85          3.952          44.97         -8.499         -4.318          18.49          45.85          -43.0          44.55          17.92
     0.457              -29.52          34.85          3.969          44.97         -8.501         -4.311           18.5          45.84          -43.0          44.57          17.93
    0.5027              -29.52          34.85          3.988          44.97         -8.503         -4.305          18.52          45.84         -42.99          44.59          17.94
    0.5484              -29.51          34.85          4.009          44.97         -8.505         -4.298          18.53          45.84         -42.98          44.61          17.95
    0.5941              -29.51          34.85           4.03          44.96         -8.508          -4.29          18.55          45.84         -42.98          44.64          17.96
    0.6398               -29.5          34.85          4.054          44.96          -8.51         -4.282          18.57          45.84         -42.97          44.67          17.97
    0.6855              -29.49          34.85           4.08          44.96         -8.513         -4.273          18.59          45.83         -42.96           44.7          17.98
    0.7312              -29.49          34.85          4.108          44.95         -8.516         -4.263          18.61          45.83         -42.95          44.73          17.99
    0.7769              -29.48          34.86          4.139          44.95          -8.52         -4.252          18.63          45.83         -42.94          44.76           18.0
    0.8226              -29.47          34.86          4.172          44.95         -8.523          -4.24          18.66          45.82         -42.93           44.8          18.02
    0.8683              -29.46          34.86          4.209          44.94         -8.527         -4.227          18.69          45.82         -42.92          44.84          18.03
     0.914              -29.45          34.86          4.249          44.94         -8.532         -4.213          18.72          45.81          -42.9          44.89          18.05
    0.9597              -29.44          34.86          4.293          44.93         -8.536         -4.198          18.75          45.81         -42.89          44.94          18.07
     1.005              -29.42          34.86          4.342          44.92         -8.542         -4.181          18.79           45.8         -42.87           45.0          18.09
     1.051              -29.41          34.86          4.396          44.92         -8.548         -4.162          18.83           45.8         -42.86          45.06          18.12
     1.097              -29.39          34.86          4.456          44.91         -8.554         -4.141          18.88          45.79         -42.84          45.13          18.14
     1.143              -29.38          34.86          4.523           44.9         -8.562         -4.117          18.93          45.78         -42.82          45.21          18.17
     1.188              -29.36          34.86          4.598          44.89          -8.57         -4.091          18.99          45.77         -42.79          45.29          18.21
     1.234              -29.34          34.86          4.682          44.88         -8.579         -4.061          19.06          45.76         -42.76          45.39          18.25
      1.28              -29.31          34.86          4.778          44.87         -8.589         -4.028          19.13          45.75         -42.73           45.5          18.29
     1.325              -29.28          34.86          4.886          44.86         -8.601          -3.99          19.21          45.74          -42.7          45.62          18.34
     1.371              -29.25          34.86           5.01          44.84         -8.615         -3.947          19.31          45.73         -42.66          45.77          18.39
     1.417              -29.21          34.86          5.152          44.82          -8.63         -3.897          19.42          45.71         -42.61          45.93          18.45
     1.462              -29.17          34.86          5.316           44.8         -8.648         -3.839          19.55          45.69         -42.56          46.12          18.53
     1.508              -29.12          34.86          5.506          44.78         -8.669         -3.772           19.7          45.67         -42.49          46.34          18.61
     1.554              -29.06          34.87          5.729          44.75         -8.693         -3.694          19.87          45.65         -42.42          46.59          18.71
       1.6              -28.99          34.87          5.992          44.72         -8.722         -3.602          20.07          45.62         -42.33           46.9          18.83
     1.645              -28.91          34.87          6.304          44.68         -8.756         -3.493          20.32          45.58         -42.23          47.25          18.97
     1.691              -28.81          34.87          6.678          44.64         -8.797         -3.362          20.61          45.54         -42.11          47.69          19.14
